#!OML:ASF H:\LiuWeirdWalks\Patient Classification 1\Patient 1\Session 1\male.ASF
:FULLY-SPECIFIED
:DEGREES
346
root 0.725371 18.0626 -4.69656 1.37199 6.34154 -5.40342
lowerback 4.77998 -2.03943 3.26918
upperback -0.395461 -2.3765 4.88685
thorax -3.01733 -1.19647 3.39437
lowerneck -16.0866 3.53493 7.49126
upperneck 23.8619 5.20835 -8.55632
head 10.7601 2.06105 -3.61951
rclavicle -3.6477e-014 1.35174e-014
rhumerus -35.5895 -3.44974 -56.6322
rradius 51.1164
rwrist -3.81749
rhand -10.6732 5.54239
rfingers 7.12502
rthumb 15.3353 -23.869
lclavicle -3.6477e-014 1.35174e-014
lhumerus -17.5295 -7.98261 73.2986
lradius 49.5099
lwrist 4.8303
lhand -13.981 -4.38903
lfingers 7.12502
lthumb 12.1474 25.2383
rfemur -1.76443 -3.38727 29.2066
rtibia 25.0902
rfoot -14.0486 -10.8272
rtoes -7.41733
lfemur -24.7416 2.91671 -9.33475
ltibia 49.3585
lfoot -10.3321 15.2844
ltoes -15.4259
347
root 0.738198 18.0597 -4.57617 1.30999 6.33475 -5.54578
lowerback 4.73043 -1.5399 3.6731
upperback -0.378339 -1.694 4.74194
thorax -3.0108 -0.863123 2.96456
lowerneck -16.0962 3.2567 7.19624
upperneck 23.8895 4.82659 -8.28503
head 10.7196 1.89257 -3.52482
rclavicle -5.96354e-016 3.18055e-015
rhumerus -34.9486 -2.55508 -57.1768
rradius 51.3871
rwrist -3.73008
rhand -10.6544 5.64423
rfingers 7.12502
rthumb 15.3534 -23.7658
lclavicle -5.96354e-016 3.18055e-015
lhumerus -17.7748 -6.44512 72.2295
lradius 49.6977
lwrist 4.85235
lhand -14.1072 -4.3336
lfingers 7.12502
lthumb 12.0258 25.3009
rfemur -1.00189 -3.41827 29.3286
rtibia 24.5183
rfoot -13.9392 -10.7938
rtoes -7.73886
lfemur -25.448 2.7586 -9.42705
ltibia 48.141
lfoot -10.2925 15.8582
ltoes -15.3442
348
root 0.75171 18.057 -4.4549 1.25598 6.31827 -5.69588
lowerback 4.68206 -1.03789 4.08545
upperback -0.363148 -1.00847 4.60015
thorax -2.99379 -0.528611 2.53413
lowerneck -16.1473 2.96643 6.84347
upperneck 23.9389 4.43032 -7.96629
head 10.6941 1.71667 -3.40504
rclavicle -2.73329e-015 8.74653e-015
rhumerus -34.3126 -1.68974 -57.6917
rradius 51.6612
rwrist -3.64826
rhand -10.6549 5.72788
rfingers 7.12502
rthumb 15.3529 -23.6821
lclavicle -2.73329e-015 8.74653e-015
lhumerus -18.02 -4.93122 71.1653
lradius 49.8973
lwrist 4.94525
lhand -14.2381 -4.29204
lfingers 7.12502
lthumb 11.8995 25.3498
rfemur -0.233954 -3.41736 29.4642
rtibia 23.918
rfoot -13.8008 -10.7928
rtoes -8.07588
lfemur -26.1126 2.58852 -9.51205
ltibia 46.8503
lfoot -10.2134 16.3726
ltoes -15.2995
349
root 0.765762 18.0545 -4.33231 1.20686 6.30208 -5.8356
lowerback 4.63067 -0.541758 4.48188
upperback -0.3453 -0.333117 4.45868
thorax -2.95871 -0.198936 2.11505
lowerneck -16.2024 2.69489 6.52462
upperneck 23.9569 4.05768 -7.67769
head 10.6644 1.55125 -3.29789
rclavicle -2.5842e-014 2.70347e-014
rhumerus -33.6383 -0.885516 -58.1775
rradius 51.8847
rwrist -3.53027
rhand -10.6265 5.8414
rfingers 7.12502
rthumb 15.3803 -23.5665
lclavicle -2.5842e-014 2.70347e-014
lhumerus -18.263 -3.41669 70.0992
lradius 50.0937
lwrist 5.0368
lhand -14.3314 -4.25596
lfingers 7.12502
lthumb 11.8095 25.3911
rfemur 0.547473 -3.39257 29.5944
rtibia 23.2884
rfoot -13.6333 -10.8248
rtoes -8.43981
lfemur -26.7325 2.40302 -9.60892
ltibia 45.4956
lfoot -10.0933 16.8158
ltoes -15.2879
350
root 0.780271 18.0513 -4.20876 1.16269 6.27421 -5.99234
lowerback 4.57992 -0.0468921 4.88647
upperback -0.328971 0.340416 4.32551
thorax -2.91276 0.12985 1.70227
lowerneck -16.2418 2.42555 6.21686
upperneck 23.9565 3.68962 -7.40485
head 10.6287 1.38749 -3.1973
rclavicle 8.84592e-015 3.97569e-015
rhumerus -32.9324 -0.147189 -58.6365
rradius 52.0514
rwrist -3.38689
rhand -10.601 6.01671
rfingers 7.12502
rthumb 15.4049 -23.3893
lclavicle 8.84592e-015 3.97569e-015
lhumerus -18.5357 -1.92443 69.0351
lradius 50.3179
lwrist 5.14877
lhand -14.4117 -4.23393
lfingers 7.12502
lthumb 11.7321 25.4175
rfemur 1.33748 -3.33109 29.7512
rtibia 22.6305
rfoot -13.4377 -10.8896
rtoes -8.80301
lfemur -27.3128 2.22577 -9.6834
ltibia 44.0882
lfoot -9.94766 17.1652
ltoes -15.3263
